{
	"asset":{
		"generator":"Khronos glTF Blender I/O v3.5.30",
		"version":"2.0"
	},
	"scene":0,
	"scenes":[
		{
			"name":"Scene",
			"nodes":[
				0
			]
		}
	],
	"nodes":[
		{
			"mesh":0,
			"name":"Cylinder",
			"scale":[
				1.9740362167358398,
				1.9740362167358398,
				1.9740362167358398
			]
		}
	],
	"meshes":[
		{
			"name":"Cylinder.001",
			"primitives":[
				{
					"attributes":{
						"POSITION":0,
						"TEXCOORD_0":1,
						"NORMAL":2
					},
					"indices":3
				}
			]
		}
	],
	"accessors":[
		{
			"bufferView":0,
			"componentType":5126,
			"count":2688,
			"max":[
				1,
				1,
				1.631848692893982
			],
			"min":[
				-1,
				-1,
				-1
			],
			"type":"VEC3"
		},
		{
			"bufferView":1,
			"componentType":5126,
			"count":2688,
			"type":"VEC2"
		},
		{
			"bufferView":2,
			"componentType":5126,
			"count":2688,
			"type":"VEC3"
		},
		{
			"bufferView":3,
			"componentType":5123,
			"count":4212,
			"type":"SCALAR"
		}
	],
	"bufferViews":[
		{
			"buffer":0,
			"byteLength":32256,
			"byteOffset":0,
			"target":34962
		},
		{
			"buffer":0,
			"byteLength":21504,
			"byteOffset":32256,
			"target":34962
		},
		{
			"buffer":0,
			"byteLength":32256,
			"byteOffset":53760,
			"target":34962
		},
		{
			"buffer":0,
			"byteLength":8424,
			"byteOffset":86016,
			"target":34963
		}
	],
	"buffers":[
		{
			"byteLength":94440,
			"uri":"data:application/octet-stream;base64,"
		}
	]
}
